<svg width="40" height="40" viewBox="0 0 40 40" fill="none" xmlns="http://www.w3.org/2000/svg">
<g clip-path="url(#clip0_24531_5189)">
<path d="M26.3002 36.6667V23.7667H30.6205L31.2668 18.7519H26.3002V15.5519C26.3002 14.1 26.7039 13.1093 28.7853 13.1093H31.4409V8.62408C30.1553 8.48769 28.8633 8.42154 27.5705 8.42594C23.7428 8.42594 21.1224 10.763 21.1224 15.0556V18.7519H16.7928V23.7667H21.1224V36.6667H5.18535C4.69421 36.6667 4.22318 36.4716 3.87589 36.1243C3.5286 35.777 3.3335 35.306 3.3335 34.8148V5.1852C3.3335 4.69405 3.5286 4.22303 3.87589 3.87574C4.22318 3.52845 4.69421 3.33334 5.18535 3.33334H34.815C35.3061 3.33334 35.7771 3.52845 36.1244 3.87574C36.4717 4.22303 36.6668 4.69405 36.6668 5.1852V34.8148C36.6668 35.306 36.4717 35.777 36.1244 36.1243C35.7771 36.4716 35.3061 36.6667 34.815 36.6667H26.3002V36.6667Z" fill="#A1A6B4"/>
</g>
<defs>
<clipPath id="clip0_24531_5189">
<rect width="40" height="40" fill="white"/>
</clipPath>
</defs>
</svg>
